<?xml version="1.0" standalone="no"?>
<!DOCTYPE svg PUBLIC "-//W3C//DTD SVG 20010904//EN"
 "http://www.w3.org/TR/2001/REC-SVG-20010904/DTD/svg10.dtd">
<svg version="1.0" xmlns="http://www.w3.org/2000/svg"
 width="300.000000pt" height="300.000000pt" viewBox="0 0 300.000000 300.000000"
 preserveAspectRatio="xMidYMid meet">
<metadata>
Created by potrace 1.16, written by Peter Selinger 2001-2019
</metadata>
<g transform="translate(0.000000,300.000000) scale(0.100000,-0.100000)"
fill="#000000" stroke="none">
<path d="M1385 2819 c-49 -4 -103 -6 -120 -5 -16 2 -21 1 -10 -1 12 -3 -15
-14 -66 -27 -47 -12 -123 -37 -168 -56 -74 -30 -82 -35 -78 -56 2 -13 0 -21
-4 -18 -5 3 -9 13 -10 22 0 11 -2 12 -6 4 -3 -7 0 -19 6 -26 9 -11 26 -8 91
21 142 61 255 85 435 90 178 6 280 -7 420 -52 88 -29 246 -104 285 -136 18
-15 11 -13 -25 7 -55 30 -51 19 5 -13 26 -16 41 -19 58 -12 36 14 23 40 -38
77 -30 18 -54 38 -52 43 1 6 -1 8 -6 5 -5 -3 -50 13 -101 35 -112 48 -252 85
-352 94 -148 12 -175 12 -264 4z"/>
<path d="M1461 2641 c-8 -5 -11 -16 -8 -24 4 -11 27 -17 84 -21 180 -14 339
-59 468 -131 50 -27 63 -40 60 -55 -5 -24 13 -36 28 -21 9 9 8 11 -4 6 -10 -4
-16 0 -16 10 0 8 2 15 4 15 14 0 128 -98 180 -153 287 -307 361 -765 183
-1144 -53 -114 -102 -185 -193 -280 -180 -188 -417 -299 -679 -319 -77 -5 -97
-10 -106 -25 -7 -11 -9 -18 -5 -17 5 0 17 -3 27 -7 11 -5 68 -3 130 4 424 47
783 338 920 746 140 418 -5 901 -354 1178 -41 33 -75 63 -75 68 0 4 -4 11 -9
16 -5 5 -6 3 -2 -4 11 -19 4 -17 -60 22 -77 47 -198 93 -303 115 -106 23 -251
34 -270 21z"/>
<path d="M1370 2550 c-30 -5 -71 -7 -90 -5 -28 4 -30 3 -10 -3 23 -8 22 -9
-15 -16 -136 -26 -317 -129 -450 -256 -49 -47 -73 -65 -53 -41 44 52 124 122
196 169 28 19 52 37 52 39 0 11 -97 -57 -163 -114 -54 -47 -155 -155 -129
-139 20 12 14 0 -32 -66 -134 -193 -194 -432 -167 -664 27 -238 123 -434 295
-607 44 -44 63 -67 41 -50 -53 42 -93 84 -155 168 -62 83 -69 91 -44 48 29
-52 134 -172 193 -222 30 -25 51 -40 47 -33 -12 20 1 14 53 -23 73 -53 226
-122 321 -145 164 -39 345 -37 503 7 l58 16 -5 36 c-3 20 -5 37 -6 39 0 1 -8
2 -17 2 -17 -1 -17 -2 0 -15 17 -13 15 -15 -33 -29 -278 -83 -619 -13 -855
174 -344 274 -450 766 -252 1165 33 68 106 174 134 195 16 13 15 11 -2 -10
-11 -14 14 7 55 45 41 39 89 81 106 95 41 34 19 21 -36 -20 -25 -19 -37 -25
-27 -13 28 33 149 111 224 145 120 54 242 80 383 81 133 1 254 -17 229 -35
-12 -8 -12 -9 0 -6 8 3 16 18 18 35 4 30 2 32 -49 43 -71 15 -250 21 -318 10z"/>
<path d="M555 2419 c-28 -29 -44 -49 -37 -45 21 12 14 0 -38 -69 -28 -36 -57
-80 -65 -96 -9 -17 -21 -27 -27 -23 -7 4 -8 3 -4 -4 4 -6 -6 -37 -22 -69 -147
-291 -167 -671 -52 -984 65 -180 173 -342 323 -486 102 -98 147 -128 155 -105
2 7 7 10 11 8 4 -3 8 1 8 9 0 8 -3 13 -5 10 -8 -7 -33 16 -27 25 3 4 -3 14
-12 21 -12 10 -14 10 -9 2 17 -29 -14 -9 -86 58 -43 39 -78 76 -78 82 1 7 15
-4 33 -24 18 -20 52 -54 77 -75 35 -30 -50 64 -159 176 -8 8 0 -5 18 -30 l33
-45 -40 43 c-21 24 -60 79 -86 121 -219 363 -240 814 -53 1186 42 86 139 223
188 270 l43 40 -48 -54 c-26 -30 -56 -68 -67 -85 l-21 -31 22 25 c11 14 43 50
69 80 40 46 47 59 40 78 -12 31 -27 28 -74 -15 l-40 -38 35 39 c19 21 44 42
55 46 14 6 15 9 5 9 -9 1 -38 -22 -65 -50z"/>
<path d="M2022 2388 c-22 -22 -12 -46 36 -81 59 -44 170 -158 207 -214 15 -24
30 -43 32 -43 7 0 -22 45 -64 100 l-35 45 40 -44 c58 -63 120 -178 158 -289
114 -332 36 -689 -210 -959 -31 -33 -56 -65 -56 -70 0 -5 11 -16 25 -23 20
-11 23 -16 13 -29 -7 -9 18 13 55 48 88 86 129 143 115 162 -8 11 -9 10 -4 -4
4 -12 2 -16 -6 -11 -7 5 -8 3 -3 -6 5 -9 4 -11 -3 -6 -8 5 -10 1 -6 -11 5 -15
4 -16 -6 -3 -10 13 -11 12 -6 -3 4 -12 2 -16 -6 -11 -7 5 -8 3 -3 -6 5 -9 4
-11 -3 -6 -7 4 -10 2 -6 -7 3 -8 -2 -20 -11 -27 -8 -7 -15 -9 -15 -5 0 4 -7 2
-15 -5 -8 -7 -12 -17 -8 -23 4 -6 1 -7 -7 -2 -9 6 -11 4 -5 -5 6 -9 4 -11 -5
-5 -9 6 -11 4 -5 -5 6 -9 4 -11 -5 -5 -9 6 -11 4 -5 -5 6 -9 4 -11 -5 -5 -8 5
-11 4 -7 -1 3 -6 -2 -10 -11 -11 -11 -1 5 22 41 60 237 252 328 597 244 927
-48 188 -141 345 -285 481 -103 97 -143 124 -160 107z"/>
<path d="M1360 2276 c-75 -16 -157 -47 -217 -82 -36 -21 -54 -24 -135 -24 -60
0 -98 -4 -106 -12 -8 -8 -12 -46 -12 -105 0 -86 -2 -96 -34 -155 -61 -111 -81
-196 -81 -338 0 -142 19 -222 82 -343 32 -61 36 -76 37 -155 1 -48 5 -92 9
-98 4 -7 149 -10 458 -8 248 1 447 -2 442 -6 -4 -5 -44 -21 -88 -36 -70 -24
-95 -28 -205 -28 -135 -1 -195 8 -169 25 12 9 12 10 -1 6 -8 -2 -15 -10 -15
-18 0 -8 -5 -14 -12 -14 -6 0 -15 -4 -20 -9 -5 -6 -2 -6 6 -1 11 6 13 4 8 -8
-8 -21 28 -47 63 -46 21 1 20 2 -8 9 -19 4 -39 13 -45 20 -9 10 -6 9 12 0 14
-7 75 -15 135 -18 138 -5 251 19 368 79 74 39 85 42 168 43 49 1 93 5 97 9 4
4 8 48 10 97 2 82 5 95 47 182 105 217 99 462 -15 667 -27 48 -31 63 -32 146
-1 52 -6 97 -10 101 -4 4 -48 9 -98 10 -83 2 -96 5 -172 43 -45 22 -109 47
-142 56 -83 23 -245 28 -325 11z m312 -60 c31 -9 72 -22 90 -30 31 -14 24 -15
-117 -18 -243 -5 -443 -4 -439 4 6 10 123 47 184 57 71 13 209 6 282 -13z
m-782 -706 c-5 -241 -5 -244 -22 -204 -25 61 -48 185 -48 256 0 71 21 179 47
247 l18 46 5 -50 c3 -27 3 -160 0 -295z m1256 258 c24 -72 28 -99 28 -208 0
-102 -4 -138 -22 -195 -32 -102 -38 -106 -45 -28 -13 128 -5 513 9 513 2 0 15
-37 30 -82z m-282 -644 c20 -19 20 -29 0 -48 -22 -23 -186 -23 -208 0 -9 8
-16 19 -16 24 0 5 7 16 16 24 12 12 37 16 104 16 67 0 92 -4 104 -16z"/>
<path d="M2353 1709 c-7 -7 -8 -23 -1 -52 6 -23 7 -85 4 -137 -22 -379 -257
-676 -623 -786 -76 -23 -107 -27 -223 -28 -101 -1 -154 4 -210 18 -95 23 -224
83 -304 140 -66 47 -173 155 -202 205 -15 25 -24 31 -47 29 -16 -1 -32 -9 -35
-17 -3 -8 -20 15 -43 60 -21 41 -38 70 -39 66 0 -14 62 -131 101 -189 42 -61
145 -170 196 -206 27 -19 31 -20 28 -5 -1 10 -9 17 -18 15 -8 -1 -18 2 -22 8
-3 5 0 10 7 10 10 0 9 3 -2 9 -8 6 -18 7 -24 4 -5 -4 -6 -1 -1 7 6 9 4 11 -5
5 -9 -6 -11 -4 -5 5 6 9 4 11 -5 5 -9 -5 -11 -4 -6 3 4 7 2 10 -7 7 -17 -7
-51 30 -41 46 5 8 3 10 -6 4 -9 -6 -11 -4 -5 5 6 9 4 11 -5 5 -7 -5 -11 -4 -7
1 3 5 -1 18 -9 29 -8 10 -14 13 -14 6 0 -7 -5 -9 -11 -6 -6 4 -8 14 -5 22 3 8
1 11 -4 8 -6 -4 -7 2 -4 12 5 15 4 16 -5 3 -10 -13 -11 -12 -9 5 2 11 -2 19
-8 18 -6 -1 -12 9 -12 23 1 23 2 22 26 -13 85 -127 211 -237 355 -308 182 -89
387 -116 572 -75 55 13 114 23 130 23 17 0 25 2 18 4 -7 3 28 25 78 49 300
151 488 438 506 774 6 126 -4 175 -36 174 -15 0 -19 2 -11 10 7 7 17 6 33 -3
20 -13 21 -13 8 2 -16 20 -32 22 -48 6z"/>
<path d="M2536 1099 c2 -4 1 -9 -4 -11 -4 -1 -25 -34 -46 -73 -71 -130 -170
-247 -298 -350 -41 -34 -51 -62 -26 -78 40 -26 269 201 362 361 4 6 5 12 3 12
-3 0 -24 -30 -48 -67 -46 -72 -235 -268 -282 -292 -22 -12 -30 -12 -40 -2 -9
10 -8 11 6 6 36 -14 212 153 308 291 19 27 51 81 71 119 42 78 52 82 13 5 -14
-28 -23 -50 -20 -50 9 0 56 102 50 108 -4 4 -12 7 -18 7 -7 1 -11 6 -10 11 1
6 -4 11 -12 11 -8 0 -12 -4 -9 -8z"/>
</g>
</svg>
